<svg xmlns="http://www.w3.org/2000/svg" width="128" height="128" viewBox="0 0 128 128"><path d="m82.12 70.02 6.1 7.74c1.71-2.55 3.02-5.35 3.93-8.4 0.91-3.04 1.36-6.28 1.36-9.7 0-9.87-2.9-17.98-8.7-24.35-5.8-6.36-13.14-9.55-22.02-9.55-8.72 0-16.01 3.17-21.89 9.51-5.88 6.34-8.82 14.21-8.82 23.62 0 9.61 2.91 17.56 8.74 23.85 5.83 6.29 13.2 9.43 22.13 9.43 1.23 0 2.5-0.14 3.81-0.42 1.31-0.28 2.71-0.7 4.21-1.27L54.38 70.02ZM128 128H100.73L88.22 112.28c-3.37 1.74-7.14 3.04-11.31 3.91-4.17 0.87-8.72 1.3-13.63 1.3-6.68 0-13.09-0.84-19.21-2.53C37.95 113.28 32.24 110.77 26.95 107.45 18.55 102.08 11.96 95.09 7.18 86.47 2.39 77.86 0 68.61 0 58.75 0 50.77 1.58 43.23 4.73 36.12 7.89 29.02 12.46 22.68 18.45 17.1 24.33 11.58 31.06 7.35 38.66 4.41 46.25 1.47 54.3 0 62.8 0c8.45 0 16.47 1.47 24.06 4.41 7.59 2.94 14.36 7.17 20.29 12.69 5.94 5.57 10.48 11.91 13.63 19.02 3.15 7.11 4.73 14.65 4.73 22.62 0 8.39-1.6 16.16-4.81 23.31-3.21 7.16-7.91 13.42-14.12 18.79z" fill="#E6233E"/></svg>
